<?xml version="1.0" encoding="UTF-8" standalone="no"?>
<!-- Created with Inkscape (http://www.inkscape.org/) -->

<svg
   xmlns:dc="http://purl.org/dc/elements/1.1/"
   xmlns:cc="http://creativecommons.org/ns#"
   xmlns:rdf="http://www.w3.org/1999/02/22-rdf-syntax-ns#"
   xmlns:svg="http://www.w3.org/2000/svg"
   xmlns="http://www.w3.org/2000/svg"
   xmlns:sodipodi="http://sodipodi.sourceforge.net/DTD/sodipodi-0.dtd"
   xmlns:inkscape="http://www.inkscape.org/namespaces/inkscape"
   width="276.29553mm"
   height="229.16444mm"
   viewBox="0 0 978.99992 811.99999"
   id="svg4182"
   version="1.1"
   inkscape:version="0.91 r13725"
   sodipodi:docname="ttu_kirjastus.svg">
  <defs
     id="defs4184" />
  <sodipodi:namedview
     id="base"
     pagecolor="#ffffff"
     bordercolor="#666666"
     borderopacity="1.0"
     inkscape:pageopacity="0.0"
     inkscape:pageshadow="2"
     inkscape:zoom="0.7"
     inkscape:cx="249.06032"
     inkscape:cy="532.61051"
     inkscape:document-units="px"
     inkscape:current-layer="layer1"
     showgrid="false"
     fit-margin-top="0"
     fit-margin-left="0"
     fit-margin-right="0"
     fit-margin-bottom="0"
     inkscape:window-width="1920"
     inkscape:window-height="1148"
     inkscape:window-x="1272"
     inkscape:window-y="-8"
     inkscape:window-maximized="1" />
  <metadata
     id="metadata4187">
    <rdf:RDF>
      <cc:Work
         rdf:about="">
        <dc:format>image/svg+xml</dc:format>
        <dc:type
           rdf:resource="http://purl.org/dc/dcmitype/StillImage" />
        <dc:title></dc:title>
      </cc:Work>
    </rdf:RDF>
  </metadata>
  <g
     inkscape:label="Layer 1"
     inkscape:groupmode="layer"
     id="layer1"
     transform="translate(486.47503,246.18052)">
    <path
       style="fill:#000000"
       d="m -486.47503,553.81948 0,-12 489.4999714,0 489.4999986,0 0,12 0,12 -489.4999986,0 -489.4999714,0 0,-12 z m 337.35502,-36.97397 c -17.34418,-3.70684 -27.42276,-18.20517 -29.73598,-42.77604 l -0.58841,-6.25 8.84107,0 8.84107,0 0.63044,6.78322 c 1.60322,17.25007 9.52334,26.21678 23.15676,26.21678 10.07916,0 17.74041,-5.76423 21.64977,-16.28902 l 2.30703,-6.21098 0.31193,-77.75 0.31192,-77.74999 8.45968,0 8.459671,0 -0.008,75.74999 c -0.005,46.82572 -0.39914,78.23195 -1.03308,82.25 -2.977991,18.8751 -10.151851,29.40726 -23.139741,33.97214 -6.44513,2.26528 -22.16742,3.39974 -28.46458,2.0539 z m 228.947061,-0.0597 c -11.28589,-2.02983 -21.44863,-7.57571 -27.20814,-14.84769 -7.17869,-9.06383 -12.09397,-24.58275 -12.09397,-38.18403 l 0,-6.93462 8.36248,0 8.36248,0 0.69668,8.58621 c 1.93129,23.80212 11.10472,34.00374 31.63353,35.17915 12.330769,0.70601 18.860609,-1.36762 25.553969,-8.11499 7.27903,-7.33777 9.71546,-14.13211 9.73603,-27.15037 0.0317,-20.05283 -6.91161,-28.34769 -32.623949,-38.97447 -27.99692,-11.57099 -37.5351,-17.98859 -43.43256,-29.2229 -4.27468,-8.14299 -5.73055,-15.16332 -5.66201,-27.30262 0.17798,-31.52246 18.16899,-49.90681 48.91325,-49.98264 27.595689,-0.0681 43.978019,17.66026 46.880859,50.73264 l 0.54858,6.25 -8.98467,0 -8.98467,0 0,-3.31634 c 0,-10.63985 -4.17425,-22.19358 -10.27625,-28.44322 -11.03785,-11.30491 -32.569049,-11.15323 -42.625369,0.3003 -5.92014,6.74265 -7.54009,11.6552 -7.57102,22.95926 -0.0246,9.00665 0.25652,10.57811 2.83042,15.81996 4.8493,9.87577 11.4041,14.06796 38.570249,24.66802 23.79719,9.28551 33.94531,18.91038 38.54078,36.55356 1.98597,7.62467 1.99882,26.84963 0.0236,35.22761 -5.33394,22.62344 -21.92311,35.58945 -46.986319,36.72425 -4.95332,0.22428 -11.34509,-0.0129 -14.20393,-0.52709 z m 221.188619,-0.35285 c -13.96483,-2.67299 -25.55252,-10.90863 -30.99215,-22.02685 -6.07114,-12.40895 -5.84926,-9.07297 -6.24097,-93.83662 l -0.35929,-77.74999 9.05084,0 9.05084,0 0.0148,73.24999 c 0.016,79.41945 0.12433,81.19254 5.52173,90.40251 7.09486,12.10647 22.21245,17.24455 37.53199,12.75614 7.96529,-2.33371 15.94552,-10.70859 19.09969,-20.04421 l 2.31925,-6.86444 0.29244,-74.75 0.29244,-74.74999 8.46384,0 8.46384,0 0,76.45077 c 0,52.65525 -0.34895,78.10018 -1.12111,81.75 -2.63941,12.47582 -10.33862,24.05415 -19.60717,29.48588 -10.38407,6.08547 -27.94074,8.57596 -41.78099,5.92681 z m 121.03755,0.3201 c -23.7846,-3.97645 -36.94903,-21.17501 -39.17787,-51.18359 l -0.6499,-8.75 8.58847,0 8.58847,0 0.51802,4.25 c 0.28491,2.3375 0.78303,6.65053 1.10693,9.58451 2.0238,18.33221 12.86227,28.87118 30.80827,29.95693 11.9469,0.7228 19.75068,-1.72236 26.25472,-8.2264 6.47483,-6.47482 8.49015,-12.00181 9.13956,-25.06504 0.43155,-8.68096 0.20218,-10.78071 -1.73892,-15.91881 -4.30914,-11.4063 -12.07615,-17.49977 -33.87985,-26.57985 -19.20115,-7.99626 -25.63227,-11.60668 -32.06514,-18.00134 -9.42194,-9.36597 -12.99903,-19.27602 -12.99439,-35.99999 0.003,-11.65366 1.73695,-20.63227 5.36206,-27.76916 9.3213,-18.3512 31.75479,-27.08869 55.61602,-21.66157 17.27985,3.93022 28.77011,17.72943 32.48073,39.0077 0.833,4.77675 1.51454,10.42606 1.51454,12.55402 l 0,3.86901 -8.35566,0 -8.35566,0 -0.55606,-7.25 c -1.58967,-20.72635 -13.36402,-32.7655 -32.02013,-32.74023 -17.69495,0.024 -28.12502,11.87435 -28.15607,31.99023 -0.0156,10.118 2.75824,17.29189 9.05428,23.41662 5.36468,5.2187 9.82992,7.66163 24.8893,13.61693 30.07071,11.89161 39.17843,19.51534 44.75942,37.46644 1.75453,5.64339 2.17137,9.42252 2.15086,19.5 -0.038,18.66981 -3.45851,29.27613 -12.78785,39.6526 -10.53912,11.72205 -30.81902,17.50349 -50.09415,14.28097 z m -764.52825,-97.93359 0,-96.99999 9.5,0 9.5,0 0,96.99999 0,97.00001 -9.5,0 -9.5,0 0,-97.00001 z m -127,0 0,-95.99999 8.9906,0 8.9907,0 0.2593,49.74626 0.2594,49.74624 30,-49.73993 30,-49.73993 10.7997,-0.006 c 8.7951,-0.005 10.6512,0.24422 10,1.3435 -0.4399,0.7424 -10.8202,16.87666 -23.0674,35.85392 l -22.2677,34.5041 27.0936,59.36448 c 14.9015,32.65047 27.3111,59.71621 27.5767,60.14609 0.2657,0.42955 -4.2151,0.78127 -9.9574,0.78127 l -10.4406,0 -22.2808,-50.25001 c -12.2545,-27.6375 -22.5807,-50.60042 -22.9472,-51.02871 -0.3665,-0.4283 -6.1434,8.32174 -12.8376,19.44452 l -12.1713,20.22324 0,30.80548 0,30.80548 -9,0 -9,0 0,-96.00001 z m 178,0 0,-95.99999 29.25,0.0148 c 31.7625,0.0161 37.2426,0.66747 46.9355,5.57923 11.0308,5.58971 19.8264,17.8701 23.2735,32.49419 2.256,9.57082 2.0513,30.59654 -0.3909,40.14535 -5.2201,20.41039 -17.2174,32.64067 -33.9023,34.56068 l -6.133,0.70574 21.5665,36.5 c 11.8615,20.075 22.2157,37.73751 23.00923,39.25001 l 1.4428,2.75 -10.77573,-0.0379 -10.7756,-0.0378 -25.5,-46.54061 c -14.025,-25.59734 -25.6283,-46.89 -25.785,-47.31704 -0.1567,-0.42704 5.4683,-1.03151 12.5,-1.34326 14.6676,-0.65029 20.1292,-2.18634 26.1754,-7.36164 8.6945,-7.44217 12.631,-19.18044 11.8587,-35.36176 -0.5496,-11.51507 -2.8912,-19.33061 -7.6965,-25.68848 -7.1988,-9.52473 -18.6373,-12.66888 -44.0526,-12.10895 l -13.5,0.29743 -0.2555,87.74999 -0.2555,87.75001 -8.4945,0 -8.4945,0 0,-96.00001 z m 211.379711,94.25001 c 0.92582,-3.149 44.6261,-188.72988 44.62314,-189.5 -0.002,-0.4125 5.3668,-0.75 11.92973,-0.75 10.4976,0 11.99579,0.21046 12.45796,1.75 0.96142,3.20264 45.60943,188.6807 45.60943,189.47203 0,0.42788 -3.71765,0.77797 -8.26144,0.77797 l -8.26144,0 -7.01018,-29.25001 -7.0101896,-29.25 -27.1559304,-0.26594 c -25.23421,-0.24712 -27.19072,-0.14097 -27.64758,1.5 -0.27041,0.97127 -3.49589,14.25344 -7.16773,29.51594 l -6.67608,27.75001 -7.9721,0 c -7.12182,0 -7.91723,-0.18665 -7.45759,-1.75 z m 78.6156504,-76.00001 c -0.006,-2.32657 -20.8331604,-96.42109 -21.4866404,-97.07458 -0.27981,-0.27981 -0.6643,-0.32124 -0.85442,-0.0921 -0.88418,1.06578 -22.5456,97.28357 -22.07337,98.04765 0.29539,0.47796 10.41052,0.86901 22.47806,0.86901 20.2312604,0 21.9406204,-0.13637 21.9363704,-1.75 z m 192.0046086,-9.25 0,-86.99999 -20,0 -20,0 0,-9 0,-9 48.5,0 48.5,0 0,8.97841 0,8.9784 -19.25,0.2716 -19.25,0.27159 -0.25552,86.74999 -0.25553,86.75001 -8.99447,0 -8.99448,0 0,-87.00001 z m -676.99997,-144.99999 0,-12 489.4999714,0 489.4999986,0 0,12 0,12 -489.4999986,0 -489.4999714,0 0,-12 z M 288.02494,245.28457 C 229.91488,235.94344 182.3942,203.39653 159.09376,156.9796 c -8.2719,-16.47849 -13.51845,-37.92502 -15.54781,-63.555347 -0.63789,-8.05646 -1.02101,-74.19185 -1.02101,-176.25 l 0,-163.354773 26.4227,0 26.4227,0 0.45086,164.749993 c 0.45883,167.66082 0.53113,170.83404 4.32224,189.709507 8.7738,43.68368 38.15885,73.28811 84.29242,84.92172 25.55037,6.44309 47.4991,5.47922 73.08908,-3.20968 28.46169,-9.66398 52.24443,-28.3448 63.93763,-50.22162 4.21811,-7.89166 8.70997,-21.90733 11.24978,-35.10204 2.18345,-11.343337 2.18447,-11.415897 2.53388,-181.097887 l 0.34955,-169.749993 27.02718,0 27.02717,0 -0.40075,168.249993 c -0.29608,124.30785 -0.72126,170.9923 -1.62797,178.749997 -4.94507,42.30956 -16.22985,66.28429 -44.51899,94.5815 -10.68291,10.68595 -16.85906,15.92299 -25.61284,21.71833 -19.71737,13.05363 -41.28528,21.87249 -65.46464,26.7677 -14.26996,2.88901 -49.88392,3.66671 -64,1.39757 z m -652.49997,-223.465097 0,-217.999993 -58.5,0 -58.5,0 0,-25 0,-25 145,0 145,0 0,25 0,25 -60,0 -60,0 0,217.999993 0,218.000007 -26.5,0 -26.5,0 0,-218.000007 z m 311.999971,0 0,-217.999993 -58.500001,0 -58.5,0 0,-25 0,-25 145.000001,0 144.999999,0 0,25 0,25 -59.499999,0 -59.4999996,0 0,217.999993 0,218.000007 -27.0000004,0 -27,0 0,-218.000007 z m 286.999999,-241.999993 0,-26 26,0 26,0 0,26 0,26 -26,0 -26,0 0,-26 z m 110,0 0,-26 26,0 26,0 0,26 0,26 -26,0 -26,0 0,-26 z"
       id="path4741"
       inkscape:connector-curvature="0" />
  </g>
</svg>
