<?xml version="1.0" encoding="UTF-8" standalone="no"?>
<!-- Created with Inkscape (http://www.inkscape.org/) -->

<svg
   xmlns:dc="http://purl.org/dc/elements/1.1/"
   xmlns:cc="http://creativecommons.org/ns#"
   xmlns:rdf="http://www.w3.org/1999/02/22-rdf-syntax-ns#"
   xmlns:svg="http://www.w3.org/2000/svg"
   xmlns="http://www.w3.org/2000/svg"
   xmlns:sodipodi="http://sodipodi.sourceforge.net/DTD/sodipodi-0.dtd"
   xmlns:inkscape="http://www.inkscape.org/namespaces/inkscape"
   width="101.2112mm"
   height="15.2527mm"
   viewBox="0 0 358.62238 54.044999"
   id="svg2"
   version="1.1"
   inkscape:version="0.91 r13725"
   sodipodi:docname="TUT_logo_full.svg">
  <defs
     id="defs4">
    <clipPath
       id="clipPath4156"
       clipPathUnits="userSpaceOnUse">
      <path
         inkscape:connector-curvature="0"
         id="path4158"
         d="m 0,179.298 422.96,0 L 422.96,0 0,0 0,179.298 Z" />
    </clipPath>
  </defs>
  <sodipodi:namedview
     id="base"
     pagecolor="#ffffff"
     bordercolor="#666666"
     borderopacity="1.0"
     inkscape:pageopacity="0.0"
     inkscape:pageshadow="2"
     inkscape:zoom="0.98994949"
     inkscape:cx="162.50982"
     inkscape:cy="79.964496"
     inkscape:document-units="px"
     inkscape:current-layer="layer1"
     showgrid="false"
     fit-margin-top="0"
     fit-margin-left="0"
     fit-margin-right="0"
     fit-margin-bottom="0"
     inkscape:window-width="1472"
     inkscape:window-height="878"
     inkscape:window-x="1505"
     inkscape:window-y="225"
     inkscape:window-maximized="0" />
  <metadata
     id="metadata7">
    <rdf:RDF>
      <cc:Work
         rdf:about="">
        <dc:format>image/svg+xml</dc:format>
        <dc:type
           rdf:resource="http://purl.org/dc/dcmitype/StillImage" />
        <dc:title></dc:title>
      </cc:Work>
    </rdf:RDF>
  </metadata>
  <g
     inkscape:label="Layer 1"
     inkscape:groupmode="layer"
     id="layer1"
     transform="translate(225.73976,-505.3397)">
    <g
       transform="matrix(1.25,0,0,-1.25,-310.77976,644.42345)"
       inkscape:label="TTU_alternatiivne_logo_EST_ENG_CMYK"
       id="g4144">
      <g
         transform="translate(103.8521,98.21)"
         id="g4146">
        <path
           inkscape:connector-curvature="0"
           id="path4148"
           style="fill:#7b7979;fill-opacity:1;fill-rule:nonzero;stroke:none"
           d="m 0,0 3.011,0.291 0,12.766 L 0,13.057 0,0 Z m -7.795,-0.762 4.862,0.475 0,13.344 -4.862,0 0,-13.819 z m 13.744,13.819 0,-12.474 0.15,0.013 0.849,0.082 0,12.379 -0.999,0 z M -31.424,0.3 l 3.014,-0.295 0,13.052 -3.014,0 0,-12.757 z m 14.285,-1.399 2.934,-0.286 2.933,0.286 0,14.156 -5.867,0 0,-14.156 z m -18.145,1.777 0.922,-0.094 0,12.473 -0.922,0 0,-12.379 z m 9.805,-0.96 4.866,-0.476 0,13.815 -4.866,0 0,-13.339 z M 0,-30.179 l 3.011,0 0,12.764 L 0,-17.124 0,-30.179 Z m -7.795,0 4.862,0 0,13.341 -4.862,0.476 0,-13.817 z m 14.743,0 0,12.379 -0.849,0.083 -0.15,0.011 0,-12.473 0.999,0 z m -38.372,0 3.014,0 0,13.053 -3.014,-0.296 0,-12.757 z m 14.285,0 5.867,0 0,14.155 -2.933,0.285 -2.934,-0.285 0,-14.155 z m -18.145,0 0.922,0 0,12.47 -0.922,-0.091 0,-12.379 z m 9.805,0 4.866,0 0,13.814 -4.866,-0.477 0,-13.337 z" />
      </g>
      <path
         inkscape:connector-curvature="0"
         id="path4150"
         style="fill:#940748;fill-opacity:1;fill-rule:nonzero;stroke:none"
         d="m 109.255,83.448 2.01,0 0,12.4 -2.01,0 0,-12.4 z m -5.865,0 3.94,0 0,12.4 -3.94,0 0,-12.4 z m -7.879,0 5.948,0 0,12.4 -5.948,0 0,-12.4 z m -9.806,0 7.884,0 0,12.4 -7.884,0 0,-12.4 z m -7.871,0 5.941,0 0,12.4 -5.941,0 0,-12.4 z m -5.869,0 3.941,0 0,12.4 -3.941,0 0,-12.4 z m -3.933,0 2.008,0 0,12.4 -2.008,0 0,-12.4 z" />
      <g
         id="g4152">
        <g
           clip-path="url(#clipPath4156)"
           id="g4154">
          <g
             transform="translate(353.7559,84.3984)"
             id="g4160">
            <path
               inkscape:connector-curvature="0"
               id="path4162"
               style="fill:#7b7979;fill-opacity:1;fill-rule:nonzero;stroke:none"
               d="m 0,0 -1.279,-2.345 -1.026,-1.954 -0.052,0 -0.944,1.873 -1.265,2.426 -1.2,0 2.828,-5.242 0,-3.988 1.202,0 0,4.042 L 1.174,0 0,0 Z m -7.895,-8.193 c -0.418,-0.135 -1.16,-0.202 -1.63,-0.202 -2.278,0 -2.858,1.63 -2.858,3.679 0,2.439 0.985,3.948 3.153,3.948 0.582,0 1.269,-0.068 2.035,-0.31 l 0.23,0.849 c -0.553,0.202 -1.377,0.376 -2.357,0.376 -3.451,0 -4.248,-2.841 -4.248,-4.81 0,-2.763 1.054,-4.676 3.953,-4.676 0.898,0 1.883,0.135 2.787,0.433 l 0,4.419 -1.065,0 0,-3.706 z m -11.115,-0.27 c -1.969,0 -2.777,1.307 -2.777,3.76 0,2.009 0.537,3.975 2.777,3.975 2.221,0 2.627,-2.142 2.627,-3.961 0,-2.089 -0.824,-3.774 -2.627,-3.774 m 0,8.598 c -2.926,0 -3.965,-2.265 -3.965,-4.824 0,-2.831 1.106,-4.65 3.965,-4.65 2.533,0 3.826,2.022 3.826,4.691 0,2.505 -0.863,4.783 -3.826,4.783 m -9.513,-0.148 -1.149,0 0,-9.217 6.026,0 0,0.848 -4.877,0 0,8.369 z m -6.86,-8.45 c -1.969,0 -2.775,1.307 -2.775,3.76 0,2.009 0.539,3.975 2.775,3.975 2.225,0 2.629,-2.142 2.629,-3.961 0,-2.089 -0.824,-3.774 -2.629,-3.774 m 0,8.598 c -2.924,0 -3.961,-2.265 -3.961,-4.824 0,-2.831 1.104,-4.65 3.961,-4.65 2.533,0 3.828,2.022 3.828,4.691 0,2.505 -0.865,4.783 -3.828,4.783 m -6.951,-7.493 -0.07,0 -1.346,2.116 c -1.119,1.752 -2.223,3.476 -3.367,5.229 l -1.149,0 0,-9.217 1.092,0 0,7.492 c 0.028,0 0.041,0.012 0.057,0.012 l 1.211,-1.94 3.558,-5.564 1.118,0 0,9.217 -1.104,0 0,-7.345 z m -9.258,3.463 -4.312,0 c 0,1.307 0.013,2.574 0.013,3.882 l -1.172,0 0,-9.217 1.172,0 c 0,1.468 -0.013,2.936 -0.013,4.406 l 4.312,0 0,-4.406 1.172,0 0,9.217 -1.172,0 0,-3.882 z m -9.283,-4.527 c -2.414,0 -2.992,1.631 -2.992,3.746 0,2.412 0.959,3.908 2.967,3.908 0.564,0 1.252,-0.053 1.978,-0.31 l 0.242,0.849 c -0.55,0.202 -1.334,0.376 -2.332,0.376 -3.22,0 -4.043,-2.841 -4.043,-4.823 0,-2.776 1.039,-4.663 3.977,-4.663 0.851,0 1.969,0.175 2.615,0.433 l -0.217,0.808 c -0.726,-0.23 -1.711,-0.324 -2.195,-0.324 m -10.361,3.651 3.771,0 0,0.837 -3.771,0 0,3.058 4.472,0 0,0.863 -5.619,0 0,-9.217 5.836,0 0,0.875 -4.689,0 0,3.584 z m -9.541,3.869 2.964,0 0,-8.328 1.118,0 0.014,8.328 2.951,0 0,0.902 -7.047,0 0,-0.902 z m -10.052,-8.328 1.145,0 0,4.366 3.666,0 0,0.861 -3.666,0 0,3.112 4.434,0 0,0.878 -5.579,0 0,-9.217 z m -5.713,0.767 c -1.966,0 -2.775,1.307 -2.775,3.76 0,2.009 0.54,3.975 2.775,3.975 2.224,0 2.629,-2.142 2.629,-3.961 0,-2.089 -0.823,-3.774 -2.629,-3.774 m 0,8.598 c -2.924,0 -3.963,-2.265 -3.963,-4.824 0,-2.831 1.107,-4.65 3.963,-4.65 2.532,0 3.826,2.022 3.826,4.691 0,2.505 -0.862,4.783 -3.826,4.783 m -11.034,-2.48 -1.025,-1.954 -0.053,0 -0.944,1.873 -1.267,2.426 -1.198,0 2.83,-5.242 0,-3.988 1.2,0 0,4.042 2.908,5.188 -1.171,0 -1.28,-2.345 z m -11.941,1.443 2.966,0 0,-8.328 1.118,0 0.013,8.328 2.951,0 0,0.902 -7.048,0 0,-0.902 z m -2.614,-8.328 1.133,0 0,9.23 -1.133,0 0,-9.23 z m -4.849,5.242 c -1.025,0.255 -2.063,0.539 -2.063,1.548 0,1.119 0.757,1.672 1.832,1.672 0.608,0 1.349,-0.082 2.226,-0.472 l 0.363,0.809 c -0.782,0.458 -1.766,0.578 -2.534,0.578 -1.779,0 -3.058,-0.956 -3.058,-2.614 0,-1.71 1.453,-2.115 3.058,-2.533 1.133,-0.297 1.981,-0.594 1.981,-1.697 0,-1.307 -0.824,-1.725 -2.223,-1.725 -0.687,0 -1.51,0.108 -2.601,0.633 l -0.39,-0.836 c 0.902,-0.524 2.02,-0.714 2.976,-0.714 1.995,0 3.397,0.809 3.397,2.642 0,2.021 -1.63,2.372 -2.964,2.709 m -7.923,-0.352 -1.86,0 0,3.449 1.832,0 c 1.011,0 1.78,-0.469 1.78,-1.71 0,-1.428 -1.026,-1.739 -1.752,-1.739 m 1.294,-0.592 c 1.078,0.296 1.63,1.294 1.63,2.385 0,1.524 -0.943,2.547 -2.748,2.547 l -3.169,0 0,-9.23 1.133,0 0,4.015 1.455,0 c 0.903,0 1.403,-0.283 1.766,-1.482 l 0.728,-2.533 1.145,0 -0.756,2.667 c -0.214,0.754 -0.47,1.415 -1.184,1.631 m -10.74,0.161 3.774,0 0,0.837 -3.774,0 0,3.058 4.475,0 0,0.863 -5.62,0 0,-9.217 5.835,0 0,0.875 -4.69,0 0,3.584 z m -5.362,-1.388 -0.539,-1.886 -0.068,0 -0.526,1.873 -1.844,6.172 -1.214,0 2.924,-9.23 1.348,0 2.924,9.23 -1.186,0 -1.819,-6.159 z m -6.669,-3.071 1.131,0 0,9.23 -1.131,0 0,-9.23 z m -3.396,1.872 -0.067,0 -1.348,2.116 c -1.119,1.752 -2.222,3.476 -3.369,5.229 l -1.145,0 0,-9.217 1.091,0 0,7.492 c 0.027,0 0.04,0.012 0.054,0.012 l 1.213,-1.94 3.557,-5.564 1.12,0 0,9.217 -1.106,0 0,-7.345 z m -9.082,1.428 c 0,-1.698 -0.875,-2.533 -2.399,-2.533 -1.523,0 -2.385,0.85 -2.385,2.533 l 0,5.93 -1.131,0 0,-5.916 c 0,-2.129 1.039,-3.423 3.504,-3.423 2.398,0 3.53,1.361 3.53,3.423 l 0,5.916 -1.132,0 0.013,-5.93 z m -12.733,-1.428 -0.067,0 -1.347,2.116 c -1.12,1.752 -2.224,3.476 -3.37,5.229 l -1.146,0 0,-9.217 1.093,0 0,7.492 c 0.028,0 0.04,0.012 0.053,0.012 l 1.213,-1.94 3.558,-5.564 1.119,0 0,9.217 -1.106,0 0,-7.345 z m -9.189,0 -0.067,0 -1.348,2.116 c -1.118,1.752 -2.224,3.476 -3.369,5.229 l -1.145,0 0,-9.217 1.092,0 0,7.492 c 0.025,0 0.039,0.012 0.053,0.012 l 1.212,-1.94 3.558,-5.564 1.12,0 0,9.217 -1.106,0 0,-7.345 z m -9.351,-1.872 1.131,0 0,9.23 -1.131,0 0,-9.23 z m -6.225,9.217 -1.147,0 0,-9.217 6.024,0 0,0.848 -4.877,0 0,8.369 z m -7.236,0 -1.145,0 0,-9.217 6.024,0 0,0.848 -4.879,0 0,8.369 z m -7.68,-5.929 c 0.498,1.589 0.85,2.748 1.253,4.083 l 0.271,0.916 0.039,0 0.269,-0.904 c 0.432,-1.347 0.85,-2.735 1.253,-4.095 l -3.085,0 z M -220.436,0 c -0.904,-2.803 -1.954,-5.902 -3.046,-9.23 l 1.172,0 c 0.255,0.793 0.498,1.602 0.755,2.411 l 3.639,0 c 0.256,-0.809 0.498,-1.618 0.754,-2.411 l 1.2,0 -3.018,9.23 -1.456,0 z m -2.776,0 -7.048,0 0,-0.902 2.966,0 0,-8.328 1.117,0 0.014,8.328 2.951,0 0,0.902 z m 224.337,8.106 -6.707,0 0,11.508 -1.574,0 0,-12.676 8.281,0 0,1.168 z M -15.016,7.995 c -2.707,0 -3.82,1.797 -3.82,5.169 0,2.763 0.742,5.466 3.82,5.466 3.055,0 3.612,-2.944 3.612,-5.447 0,-2.872 -1.129,-5.188 -3.612,-5.188 m 5.26,5.243 c 0,3.447 -1.183,6.579 -5.26,6.579 -4.023,0 -5.447,-3.113 -5.447,-6.634 0,-3.892 1.518,-6.393 5.447,-6.393 3.483,0 5.26,2.78 5.26,6.448 m -18.197,5.392 c 3.057,0 3.611,-2.944 3.611,-5.447 0,-2.872 -1.127,-5.188 -3.611,-5.188 -2.707,0 -3.818,1.797 -3.818,5.169 0,2.763 0.74,5.466 3.818,5.466 m 0,-11.84 c 3.484,0 5.262,2.78 5.262,6.448 0,3.447 -1.186,6.579 -5.262,6.579 -4.022,0 -5.445,-3.113 -5.445,-6.634 0,-3.892 1.515,-6.393 5.445,-6.393 m -6.766,0.148 -5.095,7.634 4.908,5.06 -1.78,0 -5.537,-5.764 0,5.764 -1.558,0 0,-12.694 1.558,0 0,5.152 1.387,1.427 4.357,-6.579 1.76,0 z m -12.215,12.694 -1.555,0 0,-12.693 1.555,0 0,12.693 z m -10.119,-0.018 -1.572,0 0,-12.676 8.281,0 0,1.168 -6.709,0 0,11.508 z m -10.933,0.907 c 0.482,0 0.853,0.333 0.853,0.816 0,0.481 -0.371,0.814 -0.891,0.814 -0.425,0 -0.814,-0.37 -0.814,-0.814 0,-0.483 0.352,-0.816 0.852,-0.816 m 3.408,0 c 0.521,0 0.91,0.333 0.91,0.816 0,0.481 -0.389,0.814 -0.91,0.814 -0.424,0 -0.776,-0.37 -0.776,-0.814 0,-0.483 0.333,-0.816 0.776,-0.816 m 3.152,-9.024 0,8.135 -1.558,0 0.019,-8.153 c 0,-2.335 -1.203,-3.484 -3.299,-3.484 -2.093,0 -3.281,1.166 -3.281,3.484 l 0,8.153 -1.555,0 0,-8.135 c 0,-2.928 1.427,-4.707 4.819,-4.707 3.297,0 4.855,1.872 4.855,4.707 M -79.939,11.46 c 0.683,2.186 1.166,3.78 1.722,5.615 l 0.371,1.259 0.055,0 0.369,-1.24 c 0.596,-1.854 1.17,-3.762 1.725,-5.634 l -4.242,0 z m 1.149,8.172 c -1.242,-3.854 -2.689,-8.116 -4.19,-12.694 l 1.612,0 c 0.351,1.094 0.687,2.206 1.039,3.317 l 5.001,0 c 0.355,-1.111 0.687,-2.223 1.039,-3.317 l 1.648,0 -4.149,12.694 -2,0 z m -4.766,0 -1.78,0 -5.54,-5.764 0,5.764 -1.557,0 0,-12.694 1.557,0 0,5.152 1.391,1.427 4.352,-6.579 1.765,0 -5.101,7.634 4.913,5.06 z m -12.028,0 -1.555,0 0,-12.693 1.555,0 0,12.693 z m -4.709,-0.018 -1.518,0 0,-10.099 -0.093,0 -1.852,2.909 c -1.539,2.408 -3.058,4.78 -4.635,7.19 l -1.572,0 0,-12.676 1.5,0 0,10.303 c 0.035,0 0.055,0.019 0.072,0.019 l 1.668,-2.669 4.894,-7.653 1.536,0 0,12.676 z m -14.252,-6.617 0,-6.059 1.611,0 0,12.676 -1.611,0 0,-5.338 -5.93,0 c 0,1.798 0.017,3.54 0.017,5.338 l -1.61,0 0,-12.676 1.61,0 c 0,2.02 -0.017,4.04 -0.017,6.059 l 5.93,0 z m -9.955,-4.854 -6.446,0 0,4.928 5.187,0 0,1.15 -5.187,0 0,4.206 6.15,0 0,1.187 -7.725,0 0,-12.676 8.021,0 0,1.205 z m -9.877,11.489 -9.692,0 0,-1.242 4.078,0 0,-11.452 1.538,0 0.017,11.452 4.059,0 0,1.242 z m -22.609,-8.172 c 0.684,2.186 1.166,3.78 1.723,5.615 l 0.371,1.259 0.055,0 0.37,-1.24 c 0.592,-1.854 1.169,-3.762 1.723,-5.634 l -4.242,0 z m 5.65,-4.522 1.648,0 -4.149,12.694 -2.002,0 c -1.239,-3.854 -2.687,-8.116 -4.187,-12.694 l 1.612,0 c 0.352,1.094 0.686,2.206 1.038,3.317 l 5.002,0 c 0.353,-1.111 0.686,-2.223 1.038,-3.317 m -18.531,10.303 c 0.037,0 0.053,0.019 0.074,0.019 l 1.666,-2.669 4.893,-7.653 1.538,0 0,12.676 -1.52,0 0,-10.099 -0.093,0 -1.851,2.909 c -1.54,2.408 -3.057,4.78 -4.633,7.19 l -1.577,0 0,-12.676 1.503,0 0,10.303 z m -4.469,2.373 -1.52,0 0,-10.099 -0.093,0 -1.853,2.909 c -1.539,2.408 -3.058,4.78 -4.634,7.19 l -1.574,0 0,-12.676 1.5,0 0,10.303 c 0.038,0 0.058,0.019 0.074,0.019 l 1.67,-2.669 4.891,-7.653 1.539,0 0,12.676 z m -12.825,0.018 -1.556,0 0,-12.693 1.556,0 0,12.693 z m -3.411,-11.526 -6.709,0 0,11.508 -1.573,0 0,-12.676 8.282,0 0,1.168 z m -16.661,11.508 -1.575,0 0,-12.676 8.284,0 0,1.168 -6.709,0 0,11.508 z m -8.84,-2.539 0.37,1.259 0.056,0 0.371,-1.24 c 0.592,-1.854 1.166,-3.762 1.723,-5.634 l -4.242,0 c 0.684,2.186 1.166,3.78 1.722,5.615 m -3.15,-10.137 c 0.351,1.094 0.685,2.206 1.036,3.317 l 5.004,0 c 0.352,-1.111 0.685,-2.223 1.038,-3.317 l 1.65,0 -4.152,12.694 -2,0 c -1.244,-3.854 -2.687,-8.116 -4.188,-12.694 l 1.612,0 z m -6.859,0 1.539,0 0.018,11.452 4.058,0 0,1.242 -9.691,0 0,-1.242 4.076,0 0,-11.452 z" />
          </g>
        </g>
      </g>
    </g>
  </g>
</svg>
