<?xml version="1.0" encoding="UTF-8" standalone="no"?>
<!-- Created with Inkscape (http://www.inkscape.org/) -->

<svg
   xmlns:dc="http://purl.org/dc/elements/1.1/"
   xmlns:cc="http://creativecommons.org/ns#"
   xmlns:rdf="http://www.w3.org/1999/02/22-rdf-syntax-ns#"
   xmlns:svg="http://www.w3.org/2000/svg"
   xmlns="http://www.w3.org/2000/svg"
   xmlns:sodipodi="http://sodipodi.sourceforge.net/DTD/sodipodi-0.dtd"
   xmlns:inkscape="http://www.inkscape.org/namespaces/inkscape"
   width="271.78mm"
   height="226.06mm"
   viewBox="0 0 963 800.99999"
   id="svg2"
   version="1.1"
   inkscape:version="0.91 r13725"
   sodipodi:docname="tut_press.svg">
  <defs
     id="defs4" />
  <sodipodi:namedview
     id="base"
     pagecolor="#ffffff"
     bordercolor="#666666"
     borderopacity="1.0"
     inkscape:pageopacity="0.0"
     inkscape:pageshadow="2"
     inkscape:zoom="0.24748737"
     inkscape:cx="938.36096"
     inkscape:cy="-302.87076"
     inkscape:document-units="px"
     inkscape:current-layer="layer1"
     showgrid="false"
     fit-margin-top="0"
     fit-margin-left="0"
     fit-margin-right="0"
     fit-margin-bottom="0"
     inkscape:window-width="1920"
     inkscape:window-height="1148"
     inkscape:window-x="1272"
     inkscape:window-y="-8"
     inkscape:window-maximized="1" />
  <metadata
     id="metadata7">
    <rdf:RDF>
      <cc:Work
         rdf:about="">
        <dc:format>image/svg+xml</dc:format>
        <dc:type
           rdf:resource="http://purl.org/dc/dcmitype/StillImage" />
        <dc:title></dc:title>
      </cc:Work>
    </rdf:RDF>
  </metadata>
  <g
     inkscape:label="Layer 1"
     inkscape:groupmode="layer"
     id="layer1"
     transform="translate(0.50000571,964.20919)">
    <path
       style="fill:#000000"
       d="m -0.50000571,-176.20922 0,-13 481.49999571,0 481.5,0 0,13 0,13 -481.5,0 -481.49999571,0 0,-13 z M 695.99999,-207.90728 c -6.53703,-0.86812 -15.79711,-4.68263 -21.42491,-8.82558 -12.97064,-9.54844 -20.55672,-24.69992 -22.39371,-44.72636 l -0.43571,-4.75 8.78682,0 8.78681,0 1.16427,6.9026 c 2.2925,13.59149 9.37852,24.13438 19.55862,29.10017 4.163,2.03069 6.48081,2.42306 14.45781,2.44749 8.20795,0.0252 10.26816,-0.32963 15.14796,-2.60854 7.22151,-3.3725 12.83486,-9.01027 16.38266,-16.4539 2.37936,-4.99212 2.87555,-7.50638 3.26172,-16.52731 0.42043,-9.82131 0.25843,-11.06986 -2.10661,-16.23579 -5.3474,-11.68026 -15.99013,-19.19365 -39.90851,-28.17398 -25.86064,-9.70957 -35.4233,-18.87788 -39.45156,-37.82465 -3.8539,-18.12667 2.22805,-38.44253 15.06702,-50.32916 7.13914,-6.60958 13.63244,-9.81557 24.32252,-12.00897 9.32131,-1.91255 20.21792,-0.9081 29.7848,2.74557 7.95843,3.03939 16.98749,11.95668 21.22927,20.96647 3.15961,6.71122 6.27073,18.59232 6.27073,23.94741 l 0,3.05259 -8.45469,0 -8.45468,0 -0.62952,-3.75 c -3.2777,-19.52491 -13.06882,-29.21899 -29.53297,-29.24023 -10.16508,-0.0131 -16.20088,2.16376 -21.92489,7.90743 -6.07357,6.09442 -9.05309,12.70259 -9.72336,21.56502 -1.03252,13.65233 4.00728,23.2229 15.3941,29.2333 3.2043,1.69135 12.2851,5.3763 20.17954,8.18877 18.56327,6.61335 26.02997,10.39377 33.01692,16.7166 10.84182,9.81128 14.65369,21.06389 13.84796,40.87911 -0.81062,19.9355 -6.54,33.55279 -19.06142,45.30411 -10.64695,9.99214 -26.8003,14.66999 -43.15699,12.49783 z m 195,0 c -6.53703,-0.86812 -15.79711,-4.68263 -21.42491,-8.82558 -12.97064,-9.54844 -20.55672,-24.69992 -22.39371,-44.72636 l -0.43571,-4.75 8.78682,0 8.78681,0 1.16427,6.9026 c 2.2925,13.59149 9.37852,24.13438 19.55862,29.10017 4.163,2.03069 6.48081,2.42306 14.45781,2.44749 8.20795,0.0252 10.26816,-0.32963 15.14796,-2.60854 7.22151,-3.3725 12.83486,-9.01027 16.38266,-16.4539 2.37936,-4.99212 2.87555,-7.50638 3.26172,-16.52731 0.42043,-9.82131 0.25843,-11.06986 -2.10661,-16.23579 -5.3474,-11.68026 -15.99013,-19.19365 -39.90851,-28.17398 -25.86064,-9.70957 -35.4233,-18.87788 -39.45156,-37.82465 -3.8539,-18.12667 2.22805,-38.44253 15.06702,-50.32916 7.13914,-6.60958 13.63244,-9.81557 24.32252,-12.00897 9.32131,-1.91255 20.21792,-0.9081 29.7848,2.74557 7.95843,3.03939 16.98749,11.95668 21.22927,20.96647 3.15961,6.71122 6.27073,18.59232 6.27073,23.94741 l 0,3.05259 -8.45469,0 -8.45468,0 -0.62952,-3.75 c -3.2777,-19.52491 -13.06882,-29.21899 -29.53297,-29.24023 -10.16508,-0.0131 -16.20088,2.16376 -21.92489,7.90743 -6.07357,6.09442 -9.05309,12.70259 -9.72336,21.56502 -1.03252,13.65233 4.00728,23.2229 15.3941,29.2333 3.2043,1.69135 12.2851,5.3763 20.17954,8.18877 18.56327,6.61335 26.02997,10.39377 33.01692,16.7166 10.84182,9.81128 14.65369,21.06389 13.84796,40.87911 -0.81062,19.9355 -6.54,33.55279 -19.06142,45.30411 -10.64695,9.99214 -26.8003,14.66999 -43.15699,12.49783 z m -861.499996,-100.39429 0,-97.09235 32.75,0.43461 c 35.36438,0.46931 38.694836,0.8973 50.249996,6.45754 7.59181,3.6531 17.83784,14.1135 21.83572,22.29255 5.93199,12.13596 7.48694,25.63651 4.58314,39.79216 -4.58788,22.36532 -20.14282,37.83298 -41.954496,41.71908 -5.08348,0.90571 -15.28921,1.4316 -28.21436,1.45387 l -20.25,0.0349 0,41 0,41 -9.5,0 -9.5,0 0,-97.09235 z m 60,-4.97455 c 14.194756,-2.29691 24.830046,-10.10271 28.589636,-20.98344 2.4714,-7.15256 2.48046,-23.38301 0.0167,-29.94966 -3.75279,-10.00236 -9.3292,-15.13776 -20.779976,-19.13657 -5.54928,-1.9379 -8.936635,-2.26317 -27.57638,-2.64805 l -21.24998,-0.43876 0,37.11169 0,37.11169 17.25,-0.008 c 9.4875,-0.004 20.175,-0.48086 23.75,-1.05935 z m 144.999996,4.98123 0,-97.08568 36.25,0.41309 c 39.66981,0.45205 40.45936,0.55594 53.23797,7.00522 8.41624,4.24761 18.33009,14.45594 22.95192,23.63367 14.18729,28.1722 7.94822,61.37158 -14.73982,78.43365 -5.85041,4.39968 -10.16811,6.37353 -17.20007,7.86306 -2.75,0.58252 -5.12863,1.17205 -5.28585,1.31007 -0.20434,0.1794 32.22932,54.7356 44.44636,74.76259 0.25164,0.4125 -4.46624,0.75 -10.48417,0.75 l -10.94168,0 -27.05353,-45.25194 c -14.87944,-24.88857 -27.3393,-45.99666 -27.68857,-46.90686 -0.56981,-1.4849 0.88753,-1.69048 14.18619,-2.00115 13.5855,-0.31737 15.298,-0.56944 20.53932,-3.0232 7.5882,-3.55248 14.77433,-10.4403 18.29893,-17.53929 2.41076,-4.85556 2.93576,-7.32473 3.28986,-15.47259 0.6962,-16.01956 -4.3772,-28.46657 -15.03766,-36.89317 -8.20361,-6.48458 -11.83697,-7.16359 -41.0192,-7.6657 l -25.75,-0.44306 0,87.59848 0,87.59848 -9,0 -9,0 0,-97.08567 z m 222,0.0857 0,-97 49,0 49,0 0,9.5 0,9.5 -39.5,0 -39.5,0 0,34 0,34 39.5,0 39.5,0 0,9.5 0,9.5 -39.5,0 -39.5,0 0,34.5 0,34.5 39.5,0 39.5,0 0,9.5 0,9.5 -49,0 -49,0 0,-97 z m -456.99999571,-136 0,-13 481.49999571,0 481.5,0 0,13 0,13 -481.5,0 -481.49999571,0 0,-13 z M 465.99999,-478.86555 c -34.46295,-4.09765 -61.12221,-13.60301 -85.6745,-30.54725 -31.85431,-21.98357 -52.74204,-50.89703 -61.25881,-84.79639 -6.49933,-25.86933 -6.56493,-27.94484 -6.56585,-207.75 l -8.4e-4,-162.25 26.47475,0 26.47475,0 0.29152,167.75 c 0.32551,187.31284 -0.15838,174.40783 7.39616,197.25 4.15955,12.57696 8.45992,20.53717 16.34472,30.25496 15.59964,19.22609 39.91406,33.05681 69.24992,39.39127 10.35599,2.23616 35.02668,2.49352 45.26818,0.47223 24.57649,-4.85048 47.25453,-16.2489 63.87575,-32.10517 20.89402,-19.93245 29.34514,-41.57324 31.63714,-81.01329 0.53438,-9.19556 0.96512,-84.12145 0.97299,-169.25 l 0.0141,-152.75 26,0 26,0 -8.4e-4,163.75 c -5.2e-4,102.84363 -0.37823,167.84142 -1.0155,174.75 -3.75082,40.66269 -15.35027,67.09808 -41.35404,94.24671 -32.87231,34.31958 -79.69196,53.67852 -128.43084,53.10346 -6.98433,-0.0824 -14.04878,-0.31035 -15.69878,-0.50653 z m -346.74771,-221.59364 -0.25229,-214.25 -57.249996,-0.25819 -57.2499997,-0.25819 0,-24.49181 0,-24.49181 142.4999957,0 142.5,0 0,24.49194 0,24.49194 -58.25,0.25806 -58.25,0.25806 -0.25229,214.25 -0.2523,214.25 -26.49541,0 -26.49541,0 -0.2523,-214.25 z m 671,0 -0.25229,-214.25 -57.25,-0.25819 -57.25,-0.25819 0,-24.49181 0,-24.49181 142,0 142,0 0,24.5 0,24.5 -58,0 -58,0 0,214.5 0,214.5 -26.49771,0 -26.4977,0 -0.2523,-214.25 z"
       id="path4180"
       inkscape:connector-curvature="0" />
  </g>
</svg>
